<svg width="343" height="778" viewBox="0 0 343 778" fill="none" xmlns="http://www.w3.org/2000/svg">
<g filter="url(#filter0_b_459_369)">
<path d="M313 -1.11686e-06C329.569 -5.00034e-07 343 13.4315 343 30L343 599.928C343 625.986 311.943 639.527 292.85 621.792C273.758 604.057 242.7 617.597 242.7 643.656L242.7 747.966C242.7 770.622 218.551 785.102 198.567 774.429L15.8667 676.85C6.09948 671.633 -3.43061e-06 661.461 -2.86231e-06 650.388L2.89779e-05 30C2.98282e-05 13.4315 13.4315 -1.22694e-05 30 -1.16525e-05L313 -1.11686e-06Z" fill="black" fill-opacity="0.5"/>
</g>
<defs>
<filter id="filter0_b_459_369" x="-20" y="-20" width="383" height="818.008" filterUnits="userSpaceOnUse" color-interpolation-filters="sRGB">
<feFlood flood-opacity="0" result="BackgroundImageFix"/>
<feGaussianBlur in="BackgroundImageFix" stdDeviation="10"/>
<feComposite in2="SourceAlpha" operator="in" result="effect1_backgroundBlur_459_369"/>
<feBlend mode="normal" in="SourceGraphic" in2="effect1_backgroundBlur_459_369" result="shape"/>
</filter>
</defs>
</svg>
